name Walk1.mot
datacolumns 19
datarows 25
range 2.39000000 2.51000000
endheader

                time	   L_ground_force_vx	   L_ground_force_vy	   L_ground_force_vz	   L_ground_force_px	   L_ground_force_py	   L_ground_force_pz	   R_ground_force_vx	   R_ground_force_vy	   R_ground_force_vz	   R_ground_force_px	   R_ground_force_py	   R_ground_force_pz	   L_ground_torque_x	   L_ground_torque_y	   L_ground_torque_z	   R_ground_torque_x	   R_ground_torque_y	   R_ground_torque_z	
          2.39000000	          0.00000000	          0.00000000	          0.00000000	          0.00000000	          0.00000000	          0.00000000	         17.53249933	         70.49761229	          1.41550535	          0.45169055	          0.00000000	          0.06368926	          0.00000000	         -0.00000000	          0.00000000	          0.00000000	         -0.07017634	          0.00000000	
          2.39500000	          0.00000000	          0.00000000	          0.00000000	          0.00000000	          0.00000000	          0.00000000	         12.62624263	         52.25328886	          0.99989620	          0.40821309	          0.00000000	          0.05727821	          0.00000000	         -0.00000000	          0.00000000	          0.00000000	         -0.04624201	          0.00000000	
          2.40000000	          0.00000000	          0.00000000	         -0.00000000	          0.00000000	          0.00000000	          0.00000000	          8.52514638	         36.78236637	          0.62317236	          0.35624916	          0.00000000	          0.04970287	          0.00000000	         -0.00000000	          0.00000000	          0.00000000	         -0.02823286	          0.00000000	
          2.40500000	          0.00000000	          0.00000000	         -0.00000000	         -0.00000000	          0.00000000	         -0.00000000	          5.23128008	         24.05620878	          0.32024585	          0.29794635	          0.00000000	          0.04131656	          0.00000000	         -0.00000000	          0.00000000	          0.00000000	         -0.01478385	          0.00000000	
          2.41000000	          0.00000000	          0.00000000	         -0.00000000	         -0.00000000	          0.00000000	         -0.00000000	          2.70608673	         14.00313885	          0.09913985	          0.23745498	          0.00000000	          0.03272715	          0.00000000	         -0.00000000	          0.00000000	          0.00000000	         -0.00502974	          0.00000000	
          2.41500000	          0.00000000	          0.00000000	         -0.00000000	         -0.00000000	          0.00000000	         -0.00000000	          0.87271373	          6.44887414	         -0.05050083	          0.17988651	          0.00000000	          0.02463100	          0.00000000	         -0.00000000	          0.00000000	          0.00000000	          0.00162294	          0.00000000	
          2.42000000	          0.00000000	          0.00000000	         -0.00000000	         -0.00000000	          0.00000000	         -0.00000000	         -0.37201397	          1.09444255	         -0.14246849	          0.12874212	          0.00000000	          0.01749108	          0.00000000	         -0.00000000	          0.00000000	          0.00000000	          0.00576082	          0.00000000	
          2.42500000	          0.00000000	          0.00000000	         -0.00000000	         -0.00000000	          0.00000000	         -0.00000000	         -1.14081192	         -2.42580787	         -0.19017804	          0.08576227	          0.00000000	          0.01152906	          0.00000000	         -0.00000000	          0.00000000	          0.00000000	          0.00795876	          0.00000000	
          2.43000000	          0.00000000	          0.00000000	         -0.00000000	         -0.00000000	          0.00000000	         -0.00000000	         -1.54360272	         -4.49142421	         -0.20573246	          0.05141736	          0.00000000	          0.00679392	          0.00000000	         -0.00000000	          0.00000000	          0.00000000	          0.00873881	          0.00000000	
          2.43500000	          0.00000000	          0.00000000	         -0.00000000	         -0.00000000	          0.00000000	         -0.00000000	         -1.67982435	         -5.46084660	         -0.19943626	          0.02532615	          0.00000000	          0.00322005	          0.00000000	         -0.00000000	          0.00000000	          0.00000000	          0.00854790	          0.00000000	
          2.44000000	          0.00000000	          0.00000000	         -0.00000000	         -0.00000000	          0.00000000	         -0.00000000	         -1.63432685	         -5.65063146	         -0.17962563	          0.00659136	          0.00000000	          0.00067353	          0.00000000	         -0.00000000	          0.00000000	          0.00000000	          0.00774945	          0.00000000	
          2.44500000	          0.00000000	          0.00000000	         -0.00000000	         -0.00000000	          0.00000000	         -0.00000000	         -1.47589469	         -5.32544019	         -0.15271525	         -0.00594419	          0.00000000	         -0.00101278	          0.00000000	         -0.00000000	          0.00000000	          0.00000000	          0.00662452	          0.00000000	
          2.45000000	          0.00000000	         -0.00000000	         -0.00000000	         -0.00000000	          0.00000000	         -0.00000000	         -1.25756979	         -4.69572340	         -0.12338021	         -0.01351288	          0.00000000	         -0.00201407	          0.00000000	         -0.00000000	          0.00000000	          0.00000000	          0.00537921	          0.00000000	
          2.45500000	         -0.00000000	         -0.00000000	         -0.00000000	         -0.00000000	          0.00000000	         -0.00000000	         -1.01810369	         -3.92052328	         -0.09481033	         -0.01729783	          0.00000000	         -0.00249689	          0.00000000	          0.00000000	          0.00000000	          0.00000000	          0.00415519	          0.00000000	
          2.46000000	         -0.00000000	         -0.00000000	         -0.00000000	         -0.00000000	          0.00000000	         -0.00000000	         -0.78401904	         -3.11333647	         -0.06899067	         -0.01835699	          0.00000000	         -0.00260904	          0.00000000	          0.00000000	          0.00000000	          0.00000000	          0.00304162	          0.00000000	
          2.46500000	         -0.00000000	         -0.00000000	         -0.00000000	         -0.00000000	          0.00000000	         -0.00000000	         -0.57189865	         -2.34947594	         -0.04697670	         -0.01758440	          0.00000000	         -0.00247462	          0.00000000	          0.00000000	          0.00000000	          0.00000000	          0.00208695	          0.00000000	
          2.47000000	         -0.00000000	         -0.00000000	          0.00000000	         -0.00000000	          0.00000000	         -0.00000000	         -0.39063969	         -1.67381184	         -0.02914427	         -0.01569824	          0.00000000	         -0.00219270	          0.00000000	          0.00000000	          0.00000000	          0.00000000	          0.00130969	          0.00000000	
          2.47500000	         -0.00000000	         -0.00000000	          0.00000000	          0.00000000	          0.00000000	          0.00000000	         -0.24350696	         -1.10814326	         -0.01540373	         -0.01324714	          0.00000000	         -0.00183850	          0.00000000	          0.00000000	          0.00000000	          0.00000000	          0.00070767	          0.00000000	
          2.48000000	         -0.00000000	         -0.00000000	          0.00000000	          0.00000000	          0.00000000	          0.00000000	         -0.12989513	         -0.65775023	         -0.00537393	         -0.01062761	          0.00000000	         -0.00146595	          0.00000000	          0.00000000	          0.00000000	          0.00000000	          0.00026564	          0.00000000	
          2.48500000	         -0.00000000	         -0.00000000	          0.00000000	          0.00000000	          0.00000000	          0.00000000	         -0.04676493	         -0.31690181	          0.00148300	         -0.00810724	          0.00000000	         -0.00111111	          0.00000000	          0.00000000	          0.00000000	          0.00000000	         -0.00003884	          0.00000000	
          2.49000000	         -0.00000000	         -0.00000000	          0.00000000	          0.00000000	          0.00000000	          0.00000000	          0.01024340	         -0.07325922	          0.00576292	         -0.00584979	          0.00000000	         -0.00079568	          0.00000000	          0.00000000	          0.00000000	          0.00000000	         -0.00023102	          0.00000000	
          2.49500000	         -0.00000000	         -0.00000000	          0.00000000	          0.00000000	          0.00000000	          0.00000000	          0.04599161	          0.08877797	          0.00805178	         -0.00393948	          0.00000000	         -0.00053047	          0.00000000	          0.00000000	          0.00000000	          0.00000000	         -0.00033600	          0.00000000	
          2.50000000	         -0.00000000	         -0.00000000	          0.00000000	          0.00000000	          0.00000000	          0.00000000	          0.06527886	          0.18566802	          0.00888278	         -0.00240287	          0.00000000	         -0.00031844	          0.00000000	          0.00000000	          0.00000000	          0.00000000	         -0.00037674	          0.00000000	
          2.50500000	         -0.00000000	         -0.00000000	          0.00000000	          0.00000000	          0.00000000	          0.00000000	          0.07248463	          0.23311763	          0.00871317	         -0.00122744	          0.00000000	         -0.00015729	          0.00000000	          0.00000000	          0.00000000	          0.00000000	         -0.00037307	          0.00000000	
          2.51000000	         -0.00000000	         -0.00000000	          0.00000000	          0.00000000	          0.00000000	          0.00000000	          0.07137290	          0.24510937	          0.00791529	         -0.00037658	          0.00000000	         -0.00004150	          0.00000000	          0.00000000	          0.00000000	          0.00000000	         -0.00034121	          0.00000000	
